<svg id="clock" xmlns="http://www.w3.org/2000/svg" width="600" height="600" viewBox="0 0 600 600">
  <defs>
    <style>
      #clock:hover #line2 {
      fill: #EFE918;
      }

      #clock:hover #line1 {
      fill: #EFE918;
      transform: rotate(50deg);
      }
      #clock:hover #clockTop {
      filter: drop-shadow(5px 5px 10px #000);
      }
      #clock:hover #clockCricle {
      opacity: .8;
      }


      .cls-1 {
        fill: #b8405e;
        stroke: #eee6ce;
        stroke-miterlimit: 10;
        stroke-width: 12px;
        transition: all ease 1s;
      }

      .cls-2 {
        fill: #313552;
        transition: all ease 1s;
      }

      .cls-3 {
        fill: #2eb086;
        transform-origin: center;
        transition: all ease 1.5s;
      }
    </style>
    <script>
      <!-- define the variables first (the elements you want the user to interact with) -->
      let theClock = document.querySelector("#clock");

      function logMyId() { console.log("clicked on an element:", this.id); }

      <!-- define the user events that drive interactivity (click, hover, whatever)-->
      theClock.addEventListener("click", logMyId);
    </script>
  </defs>
  <path id="clockCricle" class="cls-1" d="M293,74.5c-127,0-230,103-230,230s103,230,230,230,230-103,230-230S420,74.5,293,74.5Zm0,406.7A176.79,176.79,0,0,1,116.2,304.42v0c0-97.7,79.2-176.7,176.8-176.7A176.79,176.79,0,0,1,469.8,304.48v0C469.8,402.2,390.6,481.2,293,481.2Z"/>
  <path id="clockTop" class="cls-2" d="M88.8,152.2A68.21,68.21,0,0,1,197.2,80.6,238.08,238.08,0,0,0,93.1,163.5,69.17,69.17,0,0,1,88.8,152.2ZM413.6,91.8a237.81,237.81,0,0,1,91.9,96.3,68.21,68.21,0,0,0-81-101.6A64.93,64.93,0,0,0,413.6,91.8Z"/>
  <g id="clockLine">
    <path id="line2" class="cls-3" d="M282.24,297.09V197.22a9.73,9.73,0,0,1,9.7-9.71h2.12a9.73,9.73,0,0,1,9.7,9.71v99.87a9.73,9.73,0,0,1-9.7,9.7h-2.12A9.73,9.73,0,0,1,282.24,297.09Z"/>
    <path id="line1" class="cls-3" d="M287.13,286.45l42-42a9.72,9.72,0,0,1,13.72,0l1.51,1.5a9.74,9.74,0,0,1,0,13.72l-42,42a9.74,9.74,0,0,1-13.72,0l-1.5-1.5A9.74,9.74,0,0,1,287.13,286.45Z"/>
  </g>
</svg>
