<svg id="map" xmlns="http://www.w3.org/2000/svg" width="600" height="600" viewBox="0 0 600 600">
  <defs>
    <style>
      .cls-1 {
        fill: #eee6ce;
        stroke-width: 13px;
      }

      .cls-1, .cls-2, .cls-3, .cls-4 {
        stroke: #313552;
        stroke-miterlimit: 10;
      }

      .cls-2 {
        fill: #2eb086;
      }

      .cls-2, .cls-3 {
        stroke-width: 8px;
      }

      .cls-3 {
        fill: #d2e019;
      }

      .cls-4 {
        fill: #b8405e;
        stroke-width: 7px;
      }
    </style>
    <script>
      <!-- define the variables first (the elements you want the user to interact with) -->
      let theMap = document.querySelector("#map");

      function logMyId() { console.log("clicked on an element:", this.id); }

      <!-- define the user events that drive interactivity (click, hover, whatever)-->
      theMap.addEventListener("click", logMyId);
    </script>
  </defs>
  <rect id="mapBack" class="cls-1" x="16.23" y="247.55" width="563.74" height="256.22"/>
  <rect id="mapGreen" class="cls-2" x="370.62" y="247.55" width="72.51" height="256.22"/>
  <rect id="mapYellow" class="cls-3" x="464.57" y="247.55" width="72.51" height="256.22"/>
  <path id="location" class="cls-4" d="M286.92,47.55c-55.82,0-101.07,42.5-101.07,94.93a90.17,90.17,0,0,0,14,48.11l42.39,103.87L286.6,403.28,331,294.46l41.35-101.3A90.33,90.33,0,0,0,388,142.48C388,90.05,342.73,47.55,286.92,47.55Zm0,127.53c-17.68,0-32-13.46-32-30.07s14.34-30.07,32-30.07,32,13.46,32,30.07S304.6,175.08,286.92,175.08Z"/>
</svg>
