<svg id="paper" xmlns="http://www.w3.org/2000/svg" width="600" height="600" viewBox="0 0 600 600">
  <defs>
    <style>
      #paper:hover #paperBack {
        filter: drop-shadow(5px 5px 10px #000);
      }

      #paper:hover #magnifier {
        opacity: 0;
      }

      .cls-1 {
        fill: #eee6ce;
        stroke: #313552;
        stroke-miterlimit: 10;
        stroke-width: 11px;
        transition: all ease 1s;
      }

      .cls-2 {
        fill: #b8405e;
        opacity: 0.78;
      }

      .cls-3 {
        fill: #313552;
        transition: opacity ease 0.5s;
      }
    </style>

  <!-- add our own JS inside the SVG -->
  <script>
    <!-- define the variables first (the elements you want the user to interact with) -->
    let thePaper = document.querySelector("#paper");

    function logMyId() { console.log("clicked on an element:", this.id); }

    <!-- define the user events that drive interactivity (click, hover, whatever)-->
    thePaper.addEventListener("click", logMyId);
  </script>

  </defs>
  <path id="paperBack" class="cls-1" d="M421.78,543.57H79.4A25.27,25.27,0,0,1,54.12,518.3V81.7A25.27,25.27,0,0,1,79.4,56.43H421.78A25.27,25.27,0,0,1,447.06,81.7V518.3A25.27,25.27,0,0,1,421.78,543.57Z"/>
  <path id="paperText" class="cls-2" d="M391.14,133H110a11.52,11.52,0,0,1-11.49-11.49h0A11.52,11.52,0,0,1,110,110h281.1a11.52,11.52,0,0,1,11.49,11.49h0A11.52,11.52,0,0,1,391.14,133Zm11.49,40.35h0a11.52,11.52,0,0,0-11.49-11.49H110a11.52,11.52,0,0,0-11.49,11.49h0A11.52,11.52,0,0,0,110,184.84h281.1A11.52,11.52,0,0,0,402.63,173.35Zm0,51.85h0a11.52,11.52,0,0,0-11.49-11.49H110A11.52,11.52,0,0,0,98.55,225.2h0A11.52,11.52,0,0,0,110,236.69h281.1A11.52,11.52,0,0,0,402.63,225.2Zm0,51.84h0a11.52,11.52,0,0,0-11.49-11.49H110A11.52,11.52,0,0,0,98.55,277h0A11.52,11.52,0,0,0,110,288.53h281.1A11.52,11.52,0,0,0,402.63,277Zm-.17,51.84h0A11.52,11.52,0,0,0,391,317.39H109.87a11.52,11.52,0,0,0-11.49,11.49h0a11.52,11.52,0,0,0,11.49,11.49H391A11.52,11.52,0,0,0,402.46,328.88Zm0,51.84h0A11.52,11.52,0,0,0,391,369.23H109.87a11.52,11.52,0,0,0-11.49,11.49h0a11.52,11.52,0,0,0,11.49,11.49H391A11.52,11.52,0,0,0,402.46,380.72Zm.41,51.85h0a11.52,11.52,0,0,0-11.49-11.49H110.27a11.52,11.52,0,0,0-11.49,11.49h0a11.52,11.52,0,0,0,11.49,11.49H391.38A11.52,11.52,0,0,0,402.87,432.57Zm0,51.84h0a11.52,11.52,0,0,0-11.49-11.49H110.27a11.52,11.52,0,0,0-11.49,11.49h0a11.52,11.52,0,0,0,11.49,11.49H391.38A11.52,11.52,0,0,0,402.87,484.41Z"/>
  <path id="magnifier" class="cls-3" d="M435.93,328.91l-7.52,4-10.77-20.31,7.52-4ZM558,499.76l-104.54-185L409.07,339.8l104.54,185,9.33,24.86,25.75-14.55,25.76-14.55Zm-68.26-296a125,125,0,1,1-125-125A125,125,0,0,1,489.7,203.71Zm-23.45,1a99.51,99.51,0,1,0-99.51,99.51A99.51,99.51,0,0,0,466.25,204.71Z"/>
</svg>
