<svg id="question" xmlns="http://www.w3.org/2000/svg" width="600" height="600" viewBox="0 0 600 600">
  <defs>
    <style>
      #question:hover #bubble {
      opacity: 0;
      }

      #question:hover #questionMark {
      fill: #EFE918;
      filter: drop-shadow(5px 5px 10px #000);
      }

      .cls-1 {
        fill: #eee6ce;
        stroke-width: 20px;
        transition: all ease 1s;
      }

      .cls-1, .cls-2 {
        stroke: #313552;
        stroke-miterlimit: 10;
      }

      .cls-2 {
        fill: #b8405e;
        stroke-width: 7px;
        transition: all ease 1s;
      }
    </style>
    <script>
      <!-- define the variables first (the elements you want the user to interact with) -->
      let theQuestion = document.querySelector("#question");

      function logMyId() { console.log("clicked on an element:", this.id); }

      <!-- define the user events that drive interactivity (click, hover, whatever)-->
      theQuestion.addEventListener("click", logMyId);
    </script>
  </defs>
  <path id="bubble" class="cls-1" d="M465,397.23l2.63,12.64,12.79,61.52-40.89-47.72-9.61-11.22c-38.44,14-82.74,21.95-129.92,21.95-147.21,0-266.55-77.55-266.55-173.2S152.79,88,300,88,566.55,165.54,566.55,261.2C566.55,316.37,526.85,365.51,465,397.23Z"/>
  <path id="questionMark" class="cls-2" d="M282.35,312.56v-1.23q.19-19.53,4.09-31.09t11-18.71a89.24,89.24,0,0,1,17.19-13.19,53.05,53.05,0,0,0,10.84-8.75,38.6,38.6,0,0,0,7.61-11.71,37.32,37.32,0,0,0,2.82-14.72,31,31,0,0,0-17.29-28.74,38.13,38.13,0,0,0-17.48-4A39.1,39.1,0,0,0,285,183.91a31.3,31.3,0,0,0-13,10.94q-5.22,7.47-6,19.53H240.21q.82-17.38,9-29.76a53.86,53.86,0,0,1,21.79-18.92,68.36,68.36,0,0,1,30.12-6.54q18,0,31.34,7.16A51.73,51.73,0,0,1,353.17,186a55.24,55.24,0,0,1,7.31,28.43,57.55,57.55,0,0,1-3.42,20.36A51.66,51.66,0,0,1,347.24,251a68.38,68.38,0,0,1-15.39,12.68,64.11,64.11,0,0,0-14.42,11.81,38,38,0,0,0-7.88,14.67,82.76,82.76,0,0,0-2.66,21.17v1.23Zm13.09,60.54a18.51,18.51,0,1,1,15.9-9.2,19.13,19.13,0,0,1-6.65,6.7A17.51,17.51,0,0,1,295.44,373.1Z"/>
</svg>
